<?xml version="1.0" encoding="utf-8"?>
<!-- Generator: Adobe Illustrator 16.0.0, SVG Export Plug-In . SVG Version: 6.00 Build 0)  -->
<!DOCTYPE svg PUBLIC "-//W3C//DTD SVG 1.1//EN" "http://www.w3.org/Graphics/SVG/1.1/DTD/svg11.dtd">
<svg version="1.1" id="Шар_1" xmlns="http://www.w3.org/2000/svg" xmlns:xlink="http://www.w3.org/1999/xlink" x="0px" y="0px"
	 width="121px" height="120.894px" viewBox="0 0 121 120.894" enable-background="new 0 0 121 120.894" xml:space="preserve">
<g>
	<path fill="#272727" d="M57.162,23.268c1.25-0.1,2.176-1.226,2.05-2.451c-0.125-1.249-1.225-2.175-2.451-2.05
		c-1.25,0.1-2.175,1.226-2.05,2.45c0.1,1.175,1.1,2.076,2.251,2.076C57.012,23.293,57.086,23.268,57.162,23.268z"/>
	<path fill="#272727" d="M59.987,102.332c1.25,0,2.25-1,2.275-2.25s-0.975-2.275-2.225-2.301c-1.25-0.024-2.275,0.976-2.3,2.227
		c-0.025,1.249,0.975,2.275,2.225,2.299l0,0C59.962,102.332,59.962,102.332,59.987,102.332z"/>
	<path fill="#272727" d="M23.505,65.65c-0.175-1.25-1.325-2.101-2.575-1.926c-1.251,0.175-2.101,1.326-1.926,2.552
		c0.149,1.124,1.125,1.95,2.25,1.95c0.101,0,0.201,0,0.325-0.025C22.83,68.052,23.68,66.9,23.505,65.65z"/>
	<path fill="#272727" d="M49.085,24.817c0.225,0,0.45-0.023,0.65-0.1c1.2-0.375,1.875-1.625,1.525-2.826
		c-0.375-1.199-1.625-1.874-2.826-1.524c-1.201,0.35-1.875,1.625-1.525,2.826C47.234,24.168,48.135,24.817,49.085,24.817z"/>
	<path fill="#272727" d="M18.704,57.824c-0.075,1.25,0.875,2.325,2.125,2.4c0.05,0,0.101,0,0.15,0c1.201,0,2.176-0.926,2.251-2.125
		c0.075-1.251-0.875-2.326-2.125-2.401C19.854,55.623,18.779,56.574,18.704,57.824z"/>
	<path fill="#272727" d="M64.989,23.393c1.124,0,2.125-0.85,2.25-2.001c0.15-1.25-0.75-2.374-2-2.5c-1.25-0.15-2.377,0.75-2.501,2
		c-0.15,1.251,0.751,2.376,2.001,2.501C64.788,23.393,64.887,23.393,64.989,23.393z"/>
	<path fill="#272727" d="M72.79,25.093c0.95,0,1.851-0.601,2.15-1.55c0.4-1.2-0.25-2.476-1.45-2.851c-1.2-0.4-2.476,0.25-2.851,1.45
		c-0.4,1.2,0.25,2.476,1.451,2.85C72.315,25.067,72.565,25.093,72.79,25.093z"/>
	<path fill="#272727" d="M29.906,85.729c-0.925,0.851-0.975,2.276-0.125,3.201c0.451,0.476,1.05,0.726,1.651,0.726
		c0.55,0,1.101-0.2,1.525-0.6c0.926-0.851,0.975-2.276,0.125-3.201C32.257,84.93,30.807,84.88,29.906,85.729z"/>
	<path fill="#272727" d="M33.607,28.369c-0.95,0.799-1.101,2.225-0.275,3.2c0.45,0.524,1.101,0.8,1.725,0.8
		c0.525,0,1.025-0.175,1.451-0.525c0.95-0.8,1.1-2.225,0.275-3.2C36.007,27.693,34.557,27.568,33.607,28.369z"/>
	<path fill="#272727" d="M78.991,28.044c0.35,0.199,0.75,0.3,1.125,0.3c0.775,0,1.55-0.426,1.976-1.15
		c0.624-1.101,0.25-2.476-0.851-3.101c-1.1-0.625-2.475-0.25-3.101,0.851C77.516,26.043,77.916,27.418,78.991,28.044L78.991,28.044z
		"/>
	<path fill="#272727" d="M23.205,76.003c0.25,0,0.5-0.051,0.75-0.126c1.175-0.425,1.801-1.725,1.376-2.899
		c-0.426-1.176-1.726-1.802-2.901-1.376c-1.176,0.425-1.8,1.726-1.375,2.901C21.38,75.428,22.255,76.003,23.205,76.003z"/>
	<path fill="#272727" d="M40.634,23.618c-1.101,0.6-1.525,1.975-0.926,3.075c0.426,0.75,1.201,1.2,2,1.2
		c0.351,0,0.726-0.075,1.076-0.275c1.1-0.6,1.525-1.976,0.925-3.075C43.109,23.442,41.733,23.018,40.634,23.618z"/>
	<path fill="#272727" d="M42.333,95.731c-0.5,1.15,0,2.475,1.151,3c0.3,0.125,0.6,0.201,0.925,0.201c0.875,0,1.701-0.5,2.075-1.351
		c0.5-1.15,0-2.477-1.15-2.977C44.184,94.056,42.833,94.581,42.333,95.731z"/>
	<path fill="#272727" d="M38.783,90.83c-1.025-0.725-2.426-0.5-3.151,0.525c-0.725,1.025-0.5,2.426,0.525,3.15
		c0.399,0.275,0.85,0.425,1.325,0.425c0.7,0,1.4-0.325,1.851-0.949C40.033,92.955,39.783,91.556,38.783,90.83z"/>
	<path fill="#272727" d="M52.011,101.407c1.05,0,1.975-0.725,2.2-1.775c0.275-1.225-0.5-2.426-1.725-2.7l0,0
		c-1.225-0.275-2.426,0.5-2.701,1.726c-0.275,1.225,0.5,2.425,1.726,2.7l0,0C51.686,101.382,51.86,101.407,52.011,101.407z"/>
	<path fill="#272727" d="M30.881,34.07c-0.975-0.776-2.4-0.626-3.176,0.374c-0.775,0.976-0.625,2.401,0.375,3.176
		c0.425,0.325,0.9,0.5,1.4,0.5c0.675,0,1.326-0.3,1.775-0.85C32.032,36.27,31.857,34.845,30.881,34.07z"/>
	<path fill="#272727" d="M87.243,86.505c-0.876,0.899-0.852,2.324,0.05,3.2c0.45,0.426,1,0.65,1.575,0.65
		c0.6,0,1.175-0.225,1.625-0.676c0.875-0.899,0.85-2.325-0.05-3.2C89.542,85.579,88.118,85.604,87.243,86.505z"/>
	<path fill="#272727" d="M90.718,34.795c-1.001,0.75-1.2,2.175-0.45,3.175c0.45,0.601,1.125,0.9,1.8,0.9
		c0.476,0,0.95-0.149,1.376-0.449c1-0.75,1.2-2.176,0.449-3.176C93.143,34.245,91.718,34.045,90.718,34.795z"/>
	<path fill="#272727" d="M95.268,41.396c-1.125,0.525-1.6,1.899-1.074,3.025c0.4,0.824,1.2,1.3,2.05,1.3
		c0.325,0,0.65-0.075,0.976-0.225c1.125-0.55,1.6-1.9,1.074-3.026C97.745,41.347,96.394,40.871,95.268,41.396z"/>
	<path fill="#272727" d="M26.18,40.57c-1.125-0.574-2.475-0.124-3.05,1.001s-0.125,2.476,1,3.051c0.325,0.175,0.676,0.25,1.025,0.25
		c0.825,0,1.625-0.45,2.025-1.25C27.756,42.496,27.306,41.121,26.18,40.57z"/>
	<path fill="#272727" d="M84.942,29.243c-0.825,0.95-0.725,2.376,0.199,3.201c0.426,0.375,0.976,0.575,1.5,0.575
		c0.626,0,1.25-0.251,1.701-0.775c0.826-0.95,0.725-2.375-0.199-3.2C87.192,28.193,85.767,28.294,84.942,29.243z"/>
	<path fill="#272727" d="M20.104,49.473c-0.325,1.2,0.375,2.45,1.601,2.775c0.2,0.05,0.4,0.075,0.6,0.075
		c1.001,0,1.9-0.675,2.176-1.675c0.325-1.201-0.375-2.451-1.601-2.776C21.68,47.548,20.43,48.247,20.104,49.473z"/>
	<path fill="#272727" d="M81.465,91.355c-1.025,0.7-1.3,2.101-0.6,3.15c0.451,0.65,1.15,1.001,1.875,1.001
		c0.451,0,0.875-0.126,1.276-0.401c1.024-0.699,1.3-2.101,0.6-3.15S82.491,90.655,81.465,91.355z"/>
	<path fill="#272727" d="M97.444,76.902c0.9,0,1.775-0.55,2.126-1.45c0.45-1.175-0.126-2.475-1.3-2.925
		c-1.176-0.45-2.477,0.125-2.926,1.3c-0.45,1.176,0.124,2.476,1.3,2.926C96.894,76.853,97.168,76.902,97.444,76.902z"/>
	<path fill="#272727" d="M101.795,67.302c0.199-1.227-0.626-2.401-1.876-2.601c-1.226-0.201-2.401,0.624-2.601,1.874
		c-0.199,1.251,0.625,2.401,1.875,2.601c0.125,0.025,0.25,0.025,0.376,0.025C100.645,69.176,101.595,68.401,101.795,67.302z"/>
	<path fill="#272727" d="M26.631,83.254c0.4,0,0.8-0.101,1.175-0.324c1.076-0.65,1.426-2.052,0.775-3.102
		c-0.65-1.074-2.05-1.425-3.101-0.775c-1.075,0.65-1.426,2.051-0.775,3.101C25.105,82.854,25.856,83.254,26.631,83.254z"/>
	<path fill="#272727" d="M95.069,79.878c-1.051-0.675-2.451-0.35-3.125,0.7c-0.676,1.05-0.377,2.451,0.699,3.126
		c0.375,0.25,0.801,0.35,1.226,0.35c0.75,0,1.476-0.375,1.899-1.05C96.418,81.954,96.12,80.553,95.069,79.878z"/>
	<path fill="#272727" d="M67.539,97.131c-1.226,0.226-2.025,1.426-1.8,2.651c0.199,1.075,1.148,1.85,2.225,1.85
		c0.15,0,0.275-0.024,0.426-0.049c1.225-0.226,2.025-1.426,1.8-2.65C69.939,97.682,68.764,96.882,67.539,97.131z"/>
	<path fill="#272727" d="M74.815,94.931c-0.025,0-0.025,0-0.051,0.025l0,0c-1.149,0.475-1.699,1.801-1.225,2.951
		c0.35,0.874,1.2,1.399,2.101,1.399c0.274,0,0.575-0.05,0.85-0.175c0.024,0,0.024-0.025,0.05-0.025l0,0
		c1.15-0.475,1.701-1.8,1.227-2.95C77.29,95.007,75.965,94.456,74.815,94.931z"/>
	<path fill="#272727" d="M98.394,48.798c-1.226,0.3-1.95,1.525-1.65,2.75c0.25,1.025,1.176,1.726,2.2,1.726
		c0.176,0,0.375-0.024,0.551-0.075c1.225-0.3,1.949-1.525,1.65-2.751C100.844,49.223,99.594,48.497,98.394,48.798z"/>
	<path fill="#272727" d="M99.969,56.648c-1.25,0.05-2.225,1.101-2.176,2.352c0.051,1.225,1.051,2.175,2.252,2.175
		c0.024,0,0.049,0,0.1,0c1.25-0.051,2.225-1.101,2.176-2.351C102.27,57.574,101.219,56.624,99.969,56.648z"/>
	<path fill="#272727" d="M107.479,22.492l-0.125-12.295c-0.019-0.899-0.736-1.597-1.671-1.615c-0.868,0.018-1.595,0.762-1.595,1.658
		l0.09,8.341l-1.445-1.345C91.395,6.117,76.42,0,60.555,0c-0.254,0-0.505,0.002-0.761,0.005C43.625,0.203,28.513,6.67,17.238,18.215
		C9.153,26.474,3.635,36.8,1.28,48.078c-2.286,11.009-1.499,22.371,2.276,32.857c0.227,0.646,0.837,1.076,1.521,1.076
		c0.16,0,0.342-0.031,0.607-0.103c0.798-0.292,1.243-1.224,0.939-2.062c-7.461-20.815-2.509-43.567,12.921-59.378
		C30.222,9.54,44.52,3.424,59.805,3.247l0.59-0.003c15.064,0,29.297,5.784,40.072,16.288l1.518,1.409l-8.459,0.093
		c-0.889,0.018-1.615,0.762-1.615,1.659c0.018,0.896,0.734,1.607,1.633,1.607l12.319-0.149
		C106.752,24.133,107.479,23.389,107.479,22.492z"/>
	<path fill="#272727" d="M117.444,39.988c-0.297-0.821-1.252-1.288-2.078-0.989c-0.41,0.148-0.738,0.447-0.926,0.842
		c-0.188,0.393-0.211,0.832-0.064,1.237c7.462,20.814,2.51,43.567-12.921,59.378c-10.868,11.093-25.421,17.2-40.979,17.2
		c-15.049,0-29.252-5.776-39.994-16.265l-1.518-1.409l8.461-0.092c0.887-0.018,1.614-0.762,1.614-1.659
		c0-0.868-0.749-1.59-1.67-1.608l-12.283,0.15c-0.888,0.018-1.615,0.762-1.615,1.659l0.149,12.294
		c0.019,0.903,0.736,1.616,1.634,1.616c0.906-0.018,1.633-0.762,1.633-1.659l-0.092-8.338l1.447,1.342
		c11.363,11.1,26.371,17.206,42.271,17.206c16.427,0,31.786-6.459,43.25-18.186c8.084-8.258,13.604-18.584,15.958-29.862
		C122.006,61.837,121.219,50.475,117.444,39.988z"/>
	<path fill="#0098CE" d="M78.992,50.327L78.992,50.327l-23.298,24.17c-0.289,0.293-0.581,0.438-1.018,0.438
		c-0.437,0-0.873-0.146-1.02-0.438L42.3,62.266l-0.291-0.289c-0.292-0.291-0.438-0.729-0.438-1.021c0-0.291,0.146-0.727,0.438-1.019
		l2.038-2.037c0.582-0.582,1.457-0.582,2.038,0l0.146,0.146l8.009,8.591c0.29,0.291,0.728,0.291,1.02,0l19.511-20.24h0.145
		c0.582-0.582,1.457-0.582,2.039,0l2.038,2.038C79.575,48.87,79.575,49.747,78.992,50.327L78.992,50.327z"/>
</g>
</svg>
