<?xml version="1.0" encoding="utf-8"?>
<!-- Generator: Adobe Illustrator 16.0.0, SVG Export Plug-In . SVG Version: 6.00 Build 0)  -->
<!DOCTYPE svg PUBLIC "-//W3C//DTD SVG 1.1//EN" "http://www.w3.org/Graphics/SVG/1.1/DTD/svg11.dtd">
<svg version="1.1" id="Шар_1" xmlns="http://www.w3.org/2000/svg" xmlns:xlink="http://www.w3.org/1999/xlink" x="0px" y="0px"
	 width="219px" height="50.919px" viewBox="0 0 219 50.919" enable-background="new 0 0 219 50.919" xml:space="preserve">
<g>
	<g>
		<g>
			<path fill="#3C3C3B" d="M21.853,31.104V9.436l-7.81,17.182H11.44L3.509,9.436v21.668H0.465V2.586h3.044l9.292,20.227
				l9.051-20.227h3.043v28.518H21.853z"/>
		</g>
		<g>
			<path fill="#3C3C3B" d="M41.164,31.104V2.586h17.703v2.723H44.208v10.054h12.496v2.724H44.208V28.38h14.658v2.724H41.164z"/>
		</g>
		<g>
			<path fill="#3C3C3B" d="M76.534,5.309v25.795H73.49V2.586h17.142v2.723H76.534z"/>
		</g>
		<g>
			<path fill="#3C3C3B" d="M144.869,5.309v25.795h-3.043V5.309h-8.25V2.586h19.545v2.723H144.869z"/>
		</g>
		<g>
			<path fill="#3C3C3B" d="M166.462,31.104V2.586h17.704v2.723h-14.66v10.054h12.496v2.724h-12.496V28.38h14.66v2.724H166.462z"/>
		</g>
		<g>
			<path fill="#3C3C3B" d="M198.668,31.104V2.586h3.045v13.578l12.216-13.578h3.844l-12.496,13.537l13.579,14.98h-4.047
				l-13.096-14.859v14.859H198.668z"/>
		</g>
	</g>
	<g>
		<g>
			<g>
				<polygon fill="#0098CE" points="127.426,33.688 112.049,0 99.652,33.688 106.182,26.072 				"/>
			</g>
		</g>
		<g>
			<path fill="#0098CE" d="M4.901,48.9v-4.965l-1.79,3.937H2.514l-1.817-3.937V48.9H0v-6.534h0.697L2.827,47l2.074-4.634h0.697V48.9
				H4.901z"/>
			<path fill="#0098CE" d="M11.491,46.817c0.018,0.412,0.045,0.597,0.137,0.816c0.211,0.504,0.615,0.743,1.23,0.743
				c0.21,0,0.413-0.046,0.579-0.109c0.202-0.083,0.32-0.166,0.568-0.404l0.45,0.395c-0.331,0.321-0.486,0.431-0.762,0.541
				c-0.248,0.102-0.542,0.156-0.872,0.156c-1.303,0-1.991-0.808-1.991-2.34c0-1.423,0.706-2.286,1.853-2.286
				c1.147,0,1.854,0.836,1.854,2.185v0.304H11.491z M13.794,45.725c-0.156-0.522-0.578-0.834-1.111-0.834
				c-0.477,0-0.872,0.257-1.055,0.678c-0.092,0.202-0.119,0.35-0.137,0.753h2.386C13.858,45.973,13.849,45.891,13.794,45.725z"/>
			<path fill="#0098CE" d="M20.35,44.954V48.9h-0.661v-4.517h2.863v0.57H20.35z"/>
			<path fill="#0098CE" d="M29.751,48.9v-0.432c-0.221,0.211-0.331,0.294-0.515,0.367c-0.21,0.092-0.449,0.119-0.798,0.119
				c-1.046,0-1.606-0.469-1.606-1.331c0-0.815,0.587-1.303,1.56-1.303h1.359v-0.431c0-0.688-0.358-0.991-1.185-0.991
				c-0.293,0-0.514,0.046-0.697,0.137c-0.156,0.073-0.248,0.156-0.413,0.377L27.007,45c0.238-0.275,0.349-0.377,0.569-0.486
				c0.258-0.13,0.579-0.185,1.01-0.185c1.211,0,1.826,0.506,1.826,1.506V48.9H29.751z M29.751,46.817h-1.267
				c-0.669,0-1.01,0.266-1.01,0.798c0,0.542,0.331,0.771,1.092,0.771c0.844,0,1.185-0.312,1.185-1.083V46.817z"/>
			<path fill="#0098CE" d="M43.762,42.99v5.91h-0.697v-5.91h-1.89v-0.624h4.478v0.624H43.762z"/>
			<path fill="#0098CE" d="M50.878,46.817c0.018,0.412,0.045,0.597,0.137,0.816c0.211,0.504,0.615,0.743,1.229,0.743
				c0.211,0,0.413-0.046,0.579-0.109c0.202-0.083,0.321-0.166,0.569-0.404l0.45,0.395c-0.331,0.321-0.487,0.431-0.762,0.541
				c-0.248,0.102-0.541,0.156-0.872,0.156c-1.303,0-1.992-0.808-1.992-2.34c0-1.423,0.706-2.286,1.854-2.286
				c1.147,0,1.854,0.836,1.854,2.185v0.304H50.878z M53.181,45.725c-0.156-0.522-0.579-0.834-1.111-0.834
				c-0.477,0-0.872,0.257-1.055,0.678c-0.092,0.202-0.12,0.35-0.137,0.753h2.386C53.245,45.973,53.236,45.891,53.181,45.725z"/>
			<path fill="#0098CE" d="M59.076,48.9v-4.517h0.661v2.167l1.992-2.167h0.817l-2.029,2.13l2.212,2.387h-0.854l-2.138-2.331V48.9
				H59.076z"/>
			<path fill="#0098CE" d="M70.165,48.9v-2.047H67.98V48.9h-0.651v-4.517h0.651v1.9h2.185v-1.9h0.661V48.9H70.165z"/>
			<path fill="#0098CE" d="M79.088,48.441c-0.331,0.33-0.781,0.514-1.294,0.514s-0.963-0.184-1.293-0.514
				c-0.386-0.395-0.551-0.928-0.551-1.799c0-0.872,0.165-1.404,0.551-1.8c0.331-0.329,0.78-0.514,1.293-0.514
				c0.505,0,0.964,0.185,1.294,0.514c0.385,0.387,0.55,0.928,0.55,1.772C79.638,47.514,79.482,48.038,79.088,48.441z M78.62,45.247
				c-0.202-0.211-0.505-0.329-0.827-0.329c-0.312,0-0.615,0.118-0.817,0.329c-0.266,0.267-0.367,0.661-0.367,1.396
				s0.101,1.119,0.367,1.396c0.202,0.21,0.496,0.329,0.817,0.329c0.322,0,0.625-0.119,0.827-0.329
				c0.257-0.267,0.358-0.652,0.358-1.368C78.978,45.899,78.886,45.514,78.62,45.247z"/>
			<path fill="#0098CE" d="M87.459,48.9v-3.946h-1.597v1.56c0,1.891-0.605,2.387-1.432,2.387h-0.302v-0.569h0.146
				c0.404,0,0.955-0.129,0.955-2.01v-1.938h2.891V48.9H87.459z"/>
			<path fill="#0098CE" d="M96.383,48.441c-0.331,0.33-0.78,0.514-1.294,0.514c-0.514,0-0.964-0.184-1.293-0.514
				c-0.386-0.395-0.551-0.928-0.551-1.799c0-0.872,0.165-1.404,0.551-1.8c0.33-0.329,0.779-0.514,1.293-0.514
				c0.505,0,0.963,0.185,1.294,0.514c0.385,0.387,0.55,0.928,0.55,1.772C96.934,47.514,96.778,48.038,96.383,48.441z M95.916,45.247
				c-0.202-0.211-0.505-0.329-0.826-0.329c-0.312,0-0.615,0.118-0.817,0.329c-0.266,0.267-0.367,0.661-0.367,1.396
				s0.101,1.119,0.367,1.396c0.202,0.21,0.496,0.329,0.817,0.329c0.321,0,0.625-0.119,0.826-0.329
				c0.257-0.267,0.358-0.652,0.358-1.368C96.273,45.899,96.182,45.514,95.916,45.247z"/>
			<path fill="#0098CE" d="M105.389,50.25V48.9h-3.359v1.35h-0.633v-1.919h0.532c0.34-0.752,0.597-1.44,0.597-3.084v-0.863h2.836
				v3.947h0.669v1.919H105.389z M104.7,44.954h-1.542v0.854c-0.009,1.192-0.22,1.854-0.514,2.523h2.056V44.954z"/>
			<path fill="#0098CE" d="M110.1,48.9l2.119-2.387l-1.937-2.13h0.808l1.91,2.167v-2.167h0.65v2.167l1.918-2.167h0.799l-1.936,2.13
				l2.119,2.387h-0.835l-2.065-2.331V48.9H113v-2.331l-2.065,2.331H110.1z"/>
			<path fill="#0098CE" d="M124.123,48.9v-3.496l-2.321,3.496h-0.651v-4.517h0.651v3.479l2.321-3.479h0.662V48.9H124.123z"/>
			<path fill="#0098CE" d="M137.024,42.99v5.91h-0.697v-6.534h3.927v0.624H137.024z"/>
			<path fill="#0098CE" d="M146.984,48.955c-0.275,0-0.514-0.046-0.725-0.146c-0.193-0.093-0.303-0.185-0.523-0.441v2.552h-0.66
				v-6.535h0.66v0.534c0.211-0.248,0.322-0.341,0.514-0.441c0.202-0.101,0.441-0.147,0.727-0.147c1.164,0,1.688,0.726,1.688,2.322
				C148.664,48.221,148.132,48.955,146.984,48.955z M146.865,44.918c-0.789,0-1.129,0.522-1.129,1.725
				c0,1.211,0.34,1.725,1.139,1.725c0.789,0,1.129-0.514,1.129-1.716C148.004,45.422,147.674,44.918,146.865,44.918z"/>
			<path fill="#0098CE" d="M154.906,49.993c-0.211,0.577-0.587,0.843-1.201,0.843h-0.285V50.25h0.202
				c0.432,0,0.579-0.111,0.743-0.562l0.322-0.88l-1.625-4.425h0.715l1.239,3.627l1.23-3.627h0.716L154.906,49.993z"/>
			<path fill="#0098CE" d="M164.446,48.9v-3.946h-2.185V48.9h-0.651v-4.517h3.497V48.9H164.446z"/>
			<path fill="#0098CE" d="M176.337,46.733V46.12h2.515v0.613H176.337z"/>
			<path fill="#0098CE" d="M191.625,48.9V43.1l-1.221,1.075v-0.754l1.221-1.055h0.661V48.9H191.625z"/>
			<path fill="#0098CE" d="M201.539,45.661l-1.605,3.239h-0.688l1.469-2.938c-0.202,0.092-0.44,0.139-0.698,0.139
				c-1.018,0-1.688-0.78-1.688-1.854c0-1.11,0.697-1.936,1.808-1.936s1.817,0.752,1.817,1.881
				C201.953,44.661,201.815,45.109,201.539,45.661z M200.136,42.897c-0.697,0-1.147,0.523-1.147,1.322
				c0,0.726,0.395,1.321,1.147,1.321c0.696,0,1.155-0.514,1.155-1.321C201.291,43.421,200.832,42.897,200.136,42.897z"/>
			<path fill="#0098CE" d="M210.041,45.661l-1.606,3.239h-0.688l1.469-2.938c-0.201,0.092-0.441,0.139-0.697,0.139
				c-1.018,0-1.689-0.78-1.689-1.854c0-1.11,0.699-1.936,1.809-1.936c1.111,0,1.816,0.752,1.816,1.881
				C210.453,44.661,210.316,45.109,210.041,45.661z M208.637,42.897c-0.697,0-1.146,0.523-1.146,1.322
				c0,0.726,0.395,1.321,1.146,1.321c0.697,0,1.156-0.514,1.156-1.321C209.793,43.421,209.334,42.897,208.637,42.897z"/>
			<path fill="#0098CE" d="M218.478,48.478c-0.304,0.304-0.726,0.486-1.304,0.486c-0.569,0-1.028-0.183-1.312-0.467
				c-0.284-0.295-0.422-0.671-0.459-1.139h0.661c0.082,0.652,0.423,1.019,1.11,1.019c0.321,0,0.615-0.109,0.808-0.303
				c0.339-0.34,0.358-0.862,0.358-1.331c0-0.798-0.156-1.587-1.102-1.587c-0.568,0-0.954,0.257-1.083,0.642h-0.597v-3.432h3.305
				v0.587h-2.708v2.074c0.257-0.284,0.66-0.45,1.175-0.45c0.486,0,0.872,0.156,1.129,0.413c0.478,0.478,0.541,1.139,0.541,1.753
				C219,47.395,218.945,48.011,218.478,48.478z"/>
		</g>
	</g>
</g>
</svg>
