<?xml version="1.0" encoding="utf-8"?>
<!-- Generator: Adobe Illustrator 16.0.0, SVG Export Plug-In . SVG Version: 6.00 Build 0)  -->
<!DOCTYPE svg PUBLIC "-//W3C//DTD SVG 1.1//EN" "http://www.w3.org/Graphics/SVG/1.1/DTD/svg11.dtd">
<svg version="1.1" id="Шар_1" xmlns="http://www.w3.org/2000/svg" xmlns:xlink="http://www.w3.org/1999/xlink" x="0px" y="0px"
	 width="197px" height="45.804px" viewBox="0 0 197 45.804" enable-background="new 0 0 197 45.804" xml:space="preserve">
<g>
	<g>
		<g>
			<path fill="#FFFFFF" d="M19.658,27.979V8.487l-7.025,15.456h-2.342L3.157,8.487v19.492H0.418V2.326h2.739l8.359,18.194
				l8.142-18.194h2.738v25.653H19.658z"/>
		</g>
		<g>
			<path fill="#FFFFFF" d="M37.028,27.979V2.326h15.924v2.449H39.767v9.044h11.241v2.45H39.767v9.26h13.186v2.45H37.028z"/>
		</g>
		<g>
			<path fill="#FFFFFF" d="M68.845,4.775v23.204h-2.738V2.326h15.419v2.449H68.845z"/>
		</g>
		<g>
			<path fill="#FFFFFF" d="M130.316,4.775v23.204h-2.737V4.775h-7.422V2.326h17.582v2.449H130.316z"/>
		</g>
		<g>
			<path fill="#FFFFFF" d="M149.739,27.979V2.326h15.926v2.449h-13.188v9.044h11.242v2.45h-11.242v9.26h13.188v2.45H149.739z"/>
		</g>
		<g>
			<path fill="#FFFFFF" d="M178.71,27.979V2.326h2.738v12.215l10.99-12.215h3.457l-11.24,12.178l12.215,13.476h-3.64l-11.782-13.367
				v13.367H178.71z"/>
		</g>
	</g>
	<g>
		<g>
			<g>
				<polygon fill="#FFFFFF" points="114.626,30.305 100.792,0 89.642,30.305 95.515,23.453 				"/>
			</g>
		</g>
		<g>
			<path fill="#FFFFFF" d="M4.408,43.988v-4.467l-1.609,3.541H2.262l-1.635-3.541v4.467H0V38.11h0.627l1.916,4.168l1.865-4.168
				h0.627v5.878H4.408z"/>
			<path fill="#FFFFFF" d="M10.336,42.114c0.016,0.371,0.041,0.537,0.124,0.734c0.189,0.453,0.553,0.669,1.106,0.669
				c0.19,0,0.372-0.042,0.521-0.1c0.182-0.073,0.289-0.148,0.512-0.363l0.405,0.354c-0.297,0.29-0.438,0.389-0.686,0.487
				c-0.223,0.092-0.487,0.141-0.784,0.141c-1.172,0-1.791-0.727-1.791-2.105c0-1.279,0.635-2.056,1.667-2.056
				c1.032,0,1.668,0.752,1.668,1.965v0.273H10.336z M12.408,41.131c-0.14-0.47-0.52-0.75-0.999-0.75c-0.429,0-0.784,0.23-0.949,0.61
				c-0.083,0.182-0.107,0.313-0.124,0.677h2.146C12.466,41.354,12.458,41.28,12.408,41.131z"/>
			<path fill="#FFFFFF" d="M18.306,40.438v3.551h-0.594v-4.062h2.575v0.512H18.306z"/>
			<path fill="#FFFFFF" d="M26.763,43.988V43.6c-0.199,0.19-0.297,0.265-0.463,0.33c-0.189,0.083-0.404,0.107-0.718,0.107
				c-0.941,0-1.445-0.421-1.445-1.197c0-0.734,0.528-1.172,1.403-1.172h1.223V41.28c0-0.619-0.322-0.892-1.065-0.892
				c-0.264,0-0.462,0.041-0.627,0.123c-0.14,0.066-0.223,0.141-0.371,0.339l-0.405-0.371c0.214-0.248,0.314-0.339,0.511-0.438
				c0.232-0.116,0.521-0.166,0.909-0.166c1.089,0,1.643,0.455,1.643,1.354v2.758H26.763z M26.763,42.114h-1.14
				c-0.603,0-0.909,0.238-0.909,0.718c0,0.487,0.297,0.694,0.983,0.694c0.759,0,1.065-0.282,1.065-0.975V42.114z"/>
			<path fill="#FFFFFF" d="M39.366,38.671v5.317h-0.627v-5.317h-1.701V38.11h4.028v0.561H39.366z"/>
			<path fill="#FFFFFF" d="M45.767,42.114c0.016,0.371,0.041,0.537,0.123,0.734c0.19,0.453,0.553,0.669,1.106,0.669
				c0.189,0,0.371-0.042,0.52-0.1c0.182-0.073,0.289-0.148,0.512-0.363l0.405,0.354c-0.297,0.29-0.438,0.389-0.685,0.487
				c-0.223,0.092-0.487,0.141-0.784,0.141c-1.172,0-1.792-0.727-1.792-2.105c0-1.279,0.635-2.056,1.667-2.056
				c1.032,0,1.668,0.752,1.668,1.965v0.273H45.767z M47.839,41.131c-0.14-0.47-0.521-0.75-1-0.75c-0.429,0-0.784,0.23-0.949,0.61
				c-0.083,0.182-0.107,0.313-0.123,0.677h2.146C47.896,41.354,47.888,41.28,47.839,41.131z"/>
			<path fill="#FFFFFF" d="M53.142,43.988v-4.062h0.594v1.949l1.792-1.949h0.735l-1.825,1.915l1.99,2.147h-0.769l-1.923-2.098v2.098
				H53.142z"/>
			<path fill="#FFFFFF" d="M63.116,43.988v-1.842h-1.965v1.842h-0.586v-4.062h0.586v1.709h1.965v-1.709h0.595v4.062H63.116z"/>
			<path fill="#FFFFFF" d="M71.143,43.575c-0.297,0.297-0.702,0.462-1.165,0.462c-0.462,0-0.866-0.165-1.163-0.462
				c-0.348-0.355-0.496-0.834-0.496-1.618s0.148-1.264,0.496-1.619c0.297-0.296,0.701-0.462,1.163-0.462
				c0.455,0,0.867,0.166,1.165,0.462c0.347,0.348,0.495,0.835,0.495,1.594C71.638,42.741,71.498,43.212,71.143,43.575z
				 M70.722,40.702c-0.182-0.19-0.454-0.297-0.744-0.297c-0.28,0-0.553,0.106-0.734,0.297c-0.239,0.239-0.33,0.594-0.33,1.255
				c0,0.66,0.091,1.007,0.33,1.255c0.182,0.189,0.446,0.297,0.734,0.297c0.29,0,0.562-0.107,0.744-0.297
				c0.231-0.24,0.322-0.587,0.322-1.23C71.044,41.288,70.961,40.941,70.722,40.702z"/>
			<path fill="#FFFFFF" d="M78.674,43.988v-3.551h-1.437v1.403c0,1.701-0.544,2.147-1.288,2.147h-0.272v-0.513h0.132
				c0.363,0,0.859-0.115,0.859-1.808v-1.742h2.6v4.062H78.674z"/>
			<path fill="#FFFFFF" d="M86.701,43.575c-0.297,0.297-0.702,0.462-1.165,0.462c-0.462,0-0.867-0.165-1.163-0.462
				c-0.348-0.355-0.496-0.834-0.496-1.618s0.148-1.264,0.496-1.619c0.296-0.296,0.701-0.462,1.163-0.462
				c0.455,0,0.867,0.166,1.165,0.462c0.347,0.348,0.495,0.835,0.495,1.594C87.196,42.741,87.056,43.212,86.701,43.575z
				 M86.28,40.702c-0.182-0.19-0.454-0.297-0.744-0.297c-0.28,0-0.553,0.106-0.734,0.297c-0.239,0.239-0.33,0.594-0.33,1.255
				c0,0.66,0.091,1.007,0.33,1.255c0.182,0.189,0.446,0.297,0.734,0.297c0.29,0,0.562-0.107,0.744-0.297
				c0.231-0.24,0.322-0.587,0.322-1.23C86.603,41.288,86.52,40.941,86.28,40.702z"/>
			<path fill="#FFFFFF" d="M94.802,45.202v-1.214H91.78v1.214h-0.57v-1.727h0.479c0.306-0.677,0.537-1.296,0.537-2.773v-0.776h2.551
				v3.55h0.603v1.727H94.802z M94.183,40.438h-1.388v0.769c-0.008,1.072-0.197,1.667-0.462,2.27h1.85V40.438z"/>
			<path fill="#FFFFFF" d="M99.039,43.988l1.907-2.147l-1.742-1.915h0.727l1.717,1.949v-1.949h0.586v1.949l1.726-1.949h0.719
				l-1.742,1.915l1.907,2.147h-0.752l-1.857-2.098v2.098h-0.586v-2.098l-1.857,2.098H99.039z"/>
			<path fill="#FFFFFF" d="M111.655,43.988v-3.146l-2.09,3.146h-0.585v-4.062h0.585v3.129l2.09-3.129h0.594v4.062H111.655z"/>
			<path fill="#FFFFFF" d="M123.26,38.671v5.317h-0.628V38.11h3.533v0.561H123.26z"/>
			<path fill="#FFFFFF" d="M132.22,44.037c-0.248,0-0.463-0.041-0.652-0.132c-0.174-0.083-0.272-0.166-0.471-0.396v2.295h-0.595
				v-5.878h0.595v0.479c0.189-0.223,0.289-0.306,0.462-0.396c0.182-0.091,0.397-0.133,0.653-0.133c1.047,0,1.518,0.653,1.518,2.089
				C133.729,43.377,133.251,44.037,132.22,44.037z M132.111,40.405c-0.709,0-1.015,0.47-1.015,1.552
				c0,1.089,0.306,1.552,1.023,1.552c0.711,0,1.016-0.463,1.016-1.544C133.136,40.858,132.839,40.405,132.111,40.405z"/>
			<path fill="#FFFFFF" d="M139.345,44.971c-0.189,0.52-0.527,0.759-1.081,0.759h-0.256v-0.527h0.182c0.388,0,0.521-0.1,0.669-0.505
				l0.289-0.792l-1.461-3.979h0.644l1.114,3.262l1.106-3.262h0.644L139.345,44.971z"/>
			<path fill="#FFFFFF" d="M147.927,43.988v-3.551h-1.965v3.551h-0.586v-4.062h3.145v4.062H147.927z"/>
			<path fill="#FFFFFF" d="M158.623,42.039v-0.553h2.263v0.553H158.623z"/>
			<path fill="#FFFFFF" d="M172.376,43.988v-5.218l-1.099,0.966V39.06l1.099-0.949h0.594v5.878H172.376z"/>
			<path fill="#FFFFFF" d="M181.294,41.074l-1.445,2.914h-0.619l1.321-2.643c-0.182,0.083-0.396,0.124-0.628,0.124
				c-0.916,0-1.519-0.701-1.519-1.668c0-0.998,0.628-1.741,1.626-1.741c1,0,1.635,0.677,1.635,1.692
				C181.665,40.174,181.542,40.578,181.294,41.074z M180.03,38.588c-0.627,0-1.031,0.472-1.031,1.189
				c0,0.652,0.355,1.188,1.031,1.188c0.627,0,1.04-0.462,1.04-1.188C181.07,39.06,180.657,38.588,180.03,38.588z"/>
			<path fill="#FFFFFF" d="M188.94,41.074l-1.444,2.914h-0.619l1.321-2.643c-0.182,0.083-0.396,0.124-0.628,0.124
				c-0.915,0-1.519-0.701-1.519-1.668c0-0.998,0.627-1.741,1.626-1.741s1.634,0.677,1.634,1.692
				C189.312,40.174,189.188,40.578,188.94,41.074z M187.678,38.588c-0.627,0-1.032,0.472-1.032,1.189
				c0,0.652,0.355,1.188,1.032,1.188c0.627,0,1.04-0.462,1.04-1.188C188.718,39.06,188.305,38.588,187.678,38.588z"/>
			<path fill="#FFFFFF" d="M196.53,43.608c-0.273,0.272-0.653,0.438-1.173,0.438c-0.513,0-0.925-0.165-1.181-0.421
				c-0.256-0.265-0.379-0.604-0.413-1.024h0.595c0.074,0.587,0.38,0.917,0.999,0.917c0.288,0,0.554-0.1,0.726-0.273
				c0.306-0.305,0.322-0.774,0.322-1.196c0-0.718-0.141-1.428-0.99-1.428c-0.512,0-0.858,0.23-0.974,0.577h-0.537V38.11h2.972v0.527
				h-2.435v1.866c0.231-0.256,0.593-0.404,1.057-0.404c0.438,0,0.784,0.14,1.015,0.371c0.43,0.43,0.487,1.024,0.487,1.577
				C197,42.634,196.95,43.188,196.53,43.608z"/>
		</g>
	</g>
</g>
</svg>
